<?xml version="1.0" standalone="no"?>
<!DOCTYPE svg PUBLIC "-//W3C//DTD SVG 20010904//EN"
 "http://www.w3.org/TR/2001/REC-SVG-20010904/DTD/svg10.dtd">
<svg version="1.0" xmlns="http://www.w3.org/2000/svg"
 width="875.000000pt" height="875.000000pt" viewBox="0 0 875.000000 875.000000"
 preserveAspectRatio="xMidYMid meet">
<metadata>
Created by potrace 1.14, written by Peter Selinger 2001-2017
</metadata>
<g transform="translate(0.000000,875.000000) scale(0.100000,-0.100000)"
fill="#000000" stroke="none">
<path d="M7467 8313 c-4 -3 -62 -11 -129 -17 l-122 -11 0 -92 c-1 -90 -1 -92
-42 -150 -22 -32 -54 -82 -70 -111 -23 -43 -42 -61 -99 -96 -108 -65 -287
-131 -457 -167 -110 -23 -306 -76 -493 -133 -66 -21 -197 -55 -291 -77 -252
-58 -504 -145 -710 -246 -177 -86 -182 -88 -164 -69 23 23 200 121 353 196 77
37 135 70 130 73 -15 9 -155 -41 -197 -71 -23 -16 -118 -70 -211 -119 -206
-108 -303 -173 -409 -271 -127 -117 -354 -361 -398 -425 -26 -38 -52 -64 -74
-73 -19 -8 -46 -28 -61 -44 -30 -34 -49 -40 -33 -10 6 10 8 37 4 58 -4 27 -1
49 10 70 9 17 16 34 16 37 0 20 -30 -24 -116 -168 -94 -158 -209 -332 -224
-342 -4 -3 -3 13 2 35 9 35 7 47 -14 88 -38 74 -38 75 -141 -118 -32 -58 -64
-96 -135 -155 l-22 -18 16 39 c22 54 237 488 268 544 15 25 26 56 26 70 1 50
74 167 165 268 50 54 102 107 116 118 161 117 262 198 252 201 -13 5 -90 -45
-112 -71 -7 -8 -63 -47 -124 -87 -253 -163 -286 -187 -368 -269 -48 -47 -103
-98 -124 -114 -22 -17 -47 -50 -60 -80 -12 -28 -51 -95 -86 -148 -35 -53 -79
-123 -97 -155 -18 -32 -71 -111 -117 -176 l-85 -117 -34 -138 c-45 -177 -54
-232 -70 -434 -8 -92 -17 -171 -20 -176 -3 -5 -35 -3 -78 5 -50 10 -111 13
-190 10 l-117 -5 5 26 c2 15 11 109 19 208 8 100 17 202 21 225 5 31 3 41 -4
34 -11 -10 -152 -496 -152 -522 0 -7 -6 -13 -12 -13 -7 0 -41 -13 -75 -29
-329 -156 -529 -512 -484 -862 23 -182 104 -355 225 -481 l61 -63 0 -67 c0
-62 -2 -69 -33 -101 -18 -18 -41 -50 -51 -70 -22 -43 -102 -146 -114 -147 -4
0 -15 17 -24 38 l-16 37 -14 -33 c-8 -19 -54 -83 -103 -144 -50 -60 -90 -114
-90 -119 0 -5 -4 -9 -9 -9 -12 0 -42 80 -87 231 -32 110 -77 219 -90 219 -3 0
-5 -15 -4 -32 4 -62 0 -76 -20 -81 -11 -3 -20 -14 -20 -24 0 -10 -11 -68 -25
-128 -14 -61 -36 -182 -51 -270 -14 -88 -31 -170 -37 -183 -9 -19 -64 -62 -80
-62 -2 0 -24 29 -47 65 -23 36 -46 65 -50 65 -11 0 -88 171 -96 214 -7 38 -7
39 -20 15 -7 -13 -13 -36 -14 -51 0 -43 -23 -168 -31 -168 -3 0 -29 64 -57
143 -99 279 -147 402 -164 419 -9 9 -20 34 -24 55 -3 21 -17 84 -30 140 -13
56 -28 138 -33 183 -5 45 -11 83 -13 86 -3 2 -8 -118 -11 -268 -4 -150 -10
-392 -13 -538 -7 -260 -6 -266 15 -308 12 -24 29 -83 36 -131 8 -48 21 -107
30 -131 11 -34 12 -41 1 -27 -19 24 -23 22 -30 -17 -5 -24 0 -48 19 -87 32
-70 31 -84 -6 -119 -35 -32 -35 -27 0 -155 19 -70 75 -175 146 -274 20 -28 41
-51 45 -51 5 0 29 -27 54 -60 44 -58 55 -77 38 -66 -4 2 -14 1 -22 -4 -12 -8
-12 -10 0 -13 8 -3 74 -23 145 -45 141 -44 649 -171 784 -196 89 -17 191 -21
191 -8 0 13 -128 93 -227 143 -69 35 -106 61 -144 103 -32 36 -45 56 -35 56 8
0 71 -13 138 -29 193 -46 418 -53 418 -13 0 5 -22 14 -49 21 -28 7 -55 19 -62
27 -6 8 -16 14 -22 14 -6 0 -41 18 -78 40 -37 22 -73 40 -81 40 -7 0 -25 21
-41 46 l-28 46 68 -7 c65 -6 432 11 442 20 9 9 -7 16 -72 29 -46 10 -80 25
-112 49 l-46 36 43 25 c41 24 49 25 178 22 74 -2 143 1 152 5 13 7 16 18 13
39 -16 97 -19 87 38 117 45 24 52 32 52 58 0 17 7 42 14 57 13 25 19 27 90 30
42 2 110 -3 151 -10 86 -14 206 -20 216 -10 3 4 0 24 -9 45 -8 21 -18 57 -22
80 -4 27 -12 43 -23 45 -16 3 85 57 173 93 39 15 43 15 90 -5 28 -12 78 -28
113 -36 35 -8 81 -22 103 -31 44 -17 44 -17 53 12 4 15 -16 59 -70 154 -43 74
-73 136 -68 141 11 10 164 50 193 50 24 0 30 18 33 110 l3 64 130 43 c134 45
334 96 419 108 57 8 56 -8 -3 -32 -56 -24 -180 -107 -181 -121 0 -7 9 -30 19
-50 10 -20 29 -70 41 -110 24 -78 24 -158 0 -282 -5 -30 -15 -98 -21 -150 -12
-114 -50 -288 -90 -419 -17 -53 -38 -132 -49 -176 -34 -149 -134 -367 -211
-460 -99 -121 -208 -221 -309 -283 -122 -76 -270 -153 -348 -182 -32 -12 -69
-30 -84 -41 -15 -10 -71 -30 -125 -43 -54 -13 -186 -47 -293 -75 -107 -28
-236 -55 -287 -61 -51 -5 -123 -17 -160 -24 -37 -8 -142 -20 -233 -26 -151
-11 -177 -11 -305 8 -90 13 -183 35 -260 60 -248 82 -737 203 -753 187 -7 -6
2 -9 188 -56 91 -23 221 -61 290 -85 158 -56 379 -119 495 -141 128 -25 579
-24 710 1 115 21 290 33 298 18 12 -18 -217 -92 -338 -108 -60 -8 -155 -23
-210 -34 -127 -26 -159 -25 -330 5 -679 121 -815 141 -789 115 6 -6 49 -15 95
-20 93 -10 465 -72 568 -95 36 -8 123 -23 192 -32 113 -15 150 -16 330 -5 403
24 506 49 977 241 150 61 275 111 278 111 14 0 250 124 287 151 22 16 45 29
51 29 6 0 34 18 61 41 27 23 80 61 117 85 38 24 68 48 68 53 0 6 21 26 48 46
80 61 439 443 498 532 30 46 70 94 88 108 53 40 141 162 214 297 37 67 74 139
81 158 8 19 28 67 46 105 18 39 37 88 41 110 6 33 8 36 12 15 6 -40 41 -180
64 -252 l21 -67 -23 -58 c-13 -32 -29 -67 -37 -78 -24 -37 -17 -47 30 -42 23
3 54 8 68 12 25 6 28 3 43 -41 9 -26 16 -78 16 -115 0 -76 16 -55 -132 -178
-26 -22 -57 -42 -68 -46 -28 -9 -25 -17 16 -38 47 -23 108 -21 174 7 30 14 58
22 62 20 14 -9 8 -108 -7 -128 -8 -11 -15 -30 -15 -42 0 -14 -17 -36 -47 -60
-27 -22 -97 -88 -156 -147 l-108 -109 83 5 c56 3 126 17 218 44 91 26 137 36
142 29 13 -18 9 -131 -4 -148 -7 -9 -60 -45 -118 -81 -100 -61 -141 -79 -392
-177 -60 -23 -108 -45 -108 -50 0 -15 224 -21 385 -11 88 6 219 14 290 17 121
6 142 10 305 61 96 31 201 69 233 85 l58 29 -3 71 -3 71 85 30 c128 45 389 88
484 79 27 -2 51 0 55 6 9 15 99 -19 166 -63 74 -50 135 -137 149 -217 4 -21
10 -38 15 -38 16 0 137 52 149 65 12 11 1 24 -64 79 -60 52 -115 85 -248 150
-94 46 -208 96 -254 111 -86 28 -121 58 -82 70 10 3 28 1 39 -4 11 -6 32 -11
48 -11 26 1 24 5 -47 71 -41 39 -90 77 -108 85 -18 8 -60 34 -93 59 -33 24
-85 53 -117 65 -58 22 -92 45 -92 64 0 5 -12 23 -27 39 -28 28 -28 29 -30 187
-2 134 0 169 17 217 42 130 153 382 264 601 l118 233 -36 79 c-20 44 -36 90
-36 102 0 14 28 57 70 107 l70 85 -32 35 c-18 20 12 -8 67 -61 55 -54 106 -98
113 -98 6 0 12 -6 12 -14 0 -7 46 -61 101 -119 85 -90 119 -117 212 -172 61
-36 117 -65 125 -65 7 0 25 9 40 20 26 18 230 95 411 155 75 25 92 36 180 114
77 69 154 132 241 198 47 37 -412 -12 -637 -67 -66 -16 -130 -26 -142 -23 -20
5 -19 8 21 34 56 37 76 43 243 74 98 17 176 39 259 72 107 41 135 58 265 156
80 61 171 133 203 159 l56 49 94 -10 c51 -6 108 -13 126 -17 44 -9 41 7 -10
47 -24 19 -87 72 -141 119 -55 47 -122 102 -150 123 -53 40 -382 209 -569 293
-94 42 -107 46 -158 40 -30 -4 -99 -20 -152 -36 -53 -16 -140 -38 -193 -50
-53 -11 -113 -27 -133 -36 -33 -14 -48 -13 -172 6 -224 35 -231 39 -50 35 91
-2 177 -7 193 -11 23 -5 27 -3 27 14 0 28 -24 118 -44 166 -9 22 -15 40 -14
42 2 1 57 28 123 59 l119 56 91 -26 c82 -23 111 -26 313 -29 122 -2 222 -1
222 3 0 4 -17 17 -38 29 -49 27 -298 132 -315 132 -7 0 -44 19 -82 41 -39 23
-95 54 -125 70 l-55 29 140 -1 c220 -1 237 0 233 12 -2 6 -33 23 -69 39 -35
15 -124 59 -196 99 -72 39 -142 71 -156 71 -21 0 -25 6 -31 39 -9 61 -22 66
-130 53 -81 -10 -283 -56 -341 -77 l-20 -8 20 20 c21 21 128 68 250 110 101
35 308 79 480 103 83 11 231 34 330 50 99 17 194 30 210 30 17 0 77 9 135 21
58 11 172 29 253 39 148 19 227 37 227 50 0 4 -8 18 -19 31 -17 21 -29 23
-157 30 -241 12 -770 -18 -1064 -61 -98 -14 -388 -73 -525 -106 -36 -9 80 89
167 141 239 143 938 492 1081 540 64 22 116 44 114 50 -2 5 -23 15 -48 23 -33
10 -119 12 -354 10 l-310 -3 -115 -42 c-263 -94 -315 -115 -417 -166 -141 -70
-217 -122 -335 -230 l-98 -90 -47 8 c-27 4 -77 11 -111 14 l-64 6 88 75 c101
86 388 336 549 478 60 53 175 160 255 237 80 77 198 184 263 238 64 54 117
103 117 109 0 7 -19 9 -57 4 -32 -3 -97 -9 -145 -13 l-88 -6 -140 -96 c-77
-53 -231 -162 -343 -242 -205 -148 -245 -174 -253 -166 -15 14 398 343 566
452 58 37 131 88 162 112 32 24 75 50 97 58 22 8 53 23 68 34 15 11 47 25 70
31 23 6 45 15 49 21 11 19 -52 2 -176 -46 -63 -25 -187 -70 -275 -101 -222
-77 -425 -190 -574 -320 -80 -69 -102 -72 -82 -11 16 48 101 126 188 171 47
25 70 42 66 51 -10 27 31 73 128 146 55 40 99 76 99 80 0 5 -15 2 -34 -6 -18
-8 -36 -12 -38 -9 -3 2 -66 -35 -139 -84 -74 -48 -181 -115 -239 -147 -97 -54
-322 -198 -398 -255 -24 -18 -35 -21 -43 -13 -9 9 -17 8 -33 -3 -12 -9 -55
-34 -96 -57 -55 -31 -82 -54 -104 -87 -16 -25 -50 -69 -75 -99 -25 -29 -60
-77 -77 -105 -19 -32 -38 -52 -52 -54 -12 -2 -22 1 -22 7 0 5 -10 13 -21 16
-18 6 -20 13 -16 41 4 20 2 32 -4 29 -5 -4 -9 5 -9 18 0 14 22 52 55 93 30 38
60 86 66 107 6 23 33 62 71 102 33 36 58 68 55 72 -3 3 -30 -12 -59 -33 -123
-89 -148 -100 -148 -70 0 31 254 277 404 389 36 27 52 34 57 25 6 -9 12 -8 26
4 10 9 94 66 186 127 92 61 165 116 162 121 -8 13 -76 -22 -237 -121 -70 -43
-134 -76 -142 -73 -17 6 -191 -88 -411 -224 -328 -201 -616 -479 -675 -649 -7
-17 -21 -38 -33 -46 -12 -8 -73 -55 -135 -105 -63 -49 -123 -92 -134 -95 -17
-5 -19 -2 -14 21 15 63 116 241 220 386 98 138 310 395 325 396 3 0 31 23 61
50 53 47 54 49 35 64 -19 14 -19 16 -4 42 46 77 331 286 449 329 19 8 95 41
169 74 74 34 139 61 145 61 17 0 362 162 424 199 32 19 143 59 282 101 126 38
250 78 277 89 97 38 291 139 380 198 99 65 213 171 213 197 0 9 18 56 40 105
22 49 40 94 40 100 0 12 -23 15 -33 4z m-1409 -1851 c-26 -26 -60 -61 -75 -79
-30 -35 -83 -55 -83 -32 0 22 124 134 161 146 19 6 36 11 39 12 3 0 -16 -21
-42 -47z m-198 -122 c0 -18 -5 -30 -13 -30 -22 0 -26 11 -15 36 15 33 28 30
28 -6z m-789 -124 c-12 -18 -21 -46 -21 -62 0 -16 -9 -46 -20 -67 -11 -20 -20
-50 -20 -67 0 -34 -49 -88 -127 -140 -60 -39 -73 -38 -73 2 0 33 53 120 115
188 17 19 44 56 58 82 25 43 81 98 100 98 5 0 -1 -15 -12 -34z m-879 -63 c-14
-38 -44 -95 -67 -128 -63 -89 -134 -217 -156 -280 -22 -63 -59 -285 -59 -357
0 -37 4 -50 20 -58 20 -10 20 -11 -3 -45 -12 -19 -37 -42 -55 -52 -25 -14 -32
-24 -30 -43 2 -19 -1 -24 -14 -22 -12 2 -40 -26 -84 -83 -37 -47 -69 -85 -72
-85 -3 0 -2 34 2 77 8 89 57 252 92 305 13 21 24 40 24 43 0 3 26 65 58 138
33 72 67 153 76 178 29 79 272 479 291 479 2 0 -8 -30 -23 -67z m1918 -828
c-13 -16 -48 -19 -101 -8 -33 7 -33 7 -9 14 14 4 47 7 74 8 42 1 47 -1 36 -14z
m-3226 -200 c300 -80 519 -297 597 -590 25 -95 30 -268 10 -360 -43 -200 -163
-384 -326 -500 -82 -58 -148 -90 -252 -121 -76 -23 -106 -27 -223 -27 -117 0
-147 4 -223 27 -288 87 -491 294 -568 581 -30 111 -30 288 0 400 59 226 217
422 426 528 56 28 168 64 242 77 67 13 246 4 317 -15z m1831 -5 c289 -74 509
-294 586 -585 25 -95 30 -268 10 -360 -43 -200 -163 -384 -326 -500 -82 -58
-148 -90 -252 -121 -76 -23 -106 -27 -223 -27 -117 0 -147 4 -223 27 -104 31
-170 63 -252 121 -163 116 -283 299 -326 500 -16 77 -16 243 0 320 99 460 553
742 1006 625z m1005 5 c0 -21 -40 -28 -75 -14 -28 10 -28 12 -10 19 35 15 85
12 85 -5z m-168 -132 c-17 -21 -46 -53 -66 -72 -20 -20 -42 -55 -52 -83 -9
-27 -40 -89 -69 -138 l-52 -89 -27 61 c-30 71 -27 82 45 140 24 18 83 75 133
126 92 93 145 126 88 55z m881 -570 c-7 -2 -21 -2 -30 0 -10 3 -4 5 12 5 17 0
24 -2 18 -5z m60 -10 c-7 -2 -19 -2 -25 0 -7 3 -2 5 12 5 14 0 19 -2 13 -5z
m-780 -51 c-42 -35 -116 -191 -143 -302 -17 -68 -22 -131 -27 -307 l-6 -223
-31 -4 c-17 -3 -130 -21 -251 -40 -121 -20 -258 -40 -305 -46 -47 -5 -132 -21
-189 -35 -57 -14 -106 -24 -108 -22 -4 5 288 80 442 113 127 27 232 59 253 76
7 6 10 19 7 29 -3 10 -2 26 4 36 16 31 28 165 18 202 -12 48 18 247 50 327 14
35 42 83 64 108 58 66 54 70 -51 63 -53 -4 -90 -3 -90 2 0 12 19 17 110 30 41
6 86 13 100 15 14 2 61 4 105 4 l80 1 -32 -27z m-2050 -15 c-2 -12 0 -52 5
-89 l8 -67 -65 -20 c-36 -11 -67 -18 -70 -15 -7 7 37 94 48 94 6 0 13 16 17
36 3 19 18 46 33 60 14 13 26 24 27 24 1 0 -1 -10 -3 -23z m3172 -351 c27 -9
35 -15 25 -19 -8 -4 -42 2 -75 13 -53 17 -56 19 -25 19 19 0 53 -6 75 -13z
m-223 -87 c113 -38 139 -52 83 -46 -34 4 -203 74 -183 76 4 1 49 -13 100 -30z
m-1975 -535 c-3 -3 -12 -4 -19 -1 -8 3 -5 6 6 6 11 1 17 -2 13 -5z m-40 -10
c-3 -3 -12 -4 -19 -1 -8 3 -5 6 6 6 11 1 17 -2 13 -5z m120 -343 c-6 -286 -13
-335 -80 -511 -42 -111 -121 -284 -124 -274 -2 6 28 93 67 193 99 256 111 345
95 692 -6 126 -5 147 9 158 9 8 16 21 16 30 1 13 2 13 12 -3 7 -13 9 -100 5
-285z m858 163 c-7 -67 -14 -74 -81 -74 -17 0 -56 -13 -87 -28 -69 -35 -65
-29 70 117 95 102 98 104 101 76 2 -17 1 -58 -3 -91z m-3750 -565 c-11 -6 -70
-45 -132 -86 l-111 -74 -56 -112 c-31 -62 -62 -132 -69 -156 -7 -25 -17 -46
-23 -48 -12 -4 -24 85 -24 171 0 51 1 51 63 98 34 26 73 53 87 60 14 7 55 34
91 60 62 45 163 98 184 98 6 -1 1 -5 -10 -11z m3710 -208 c-6 -22 -7 -22 -19
-6 -9 13 -15 15 -20 6 -4 -6 -16 -9 -26 -6 -11 3 -52 -5 -91 -19 -40 -14 -74
-24 -75 -23 -1 1 7 22 19 47 12 26 59 83 111 135 l90 90 8 -100 c4 -55 6 -111
3 -124z m10 -382 c0 -42 -25 -89 -47 -89 -5 0 -21 -9 -36 -20 -42 -30 -146
-59 -184 -51 -32 7 -33 8 -8 15 40 13 119 69 190 135 36 33 70 59 75 57 6 -2
10 -23 10 -47z m-6 -419 c1 -20 -8 -30 -46 -50 -26 -14 -61 -36 -77 -50 -39
-32 -175 -70 -254 -70 -31 0 -33 2 -21 17 8 9 25 21 39 27 25 11 173 116 285
202 l60 47 7 -49 c3 -27 7 -60 7 -74z"/>
<path d="M2517 4490 c-189 -48 -327 -227 -327 -425 0 -174 96 -321 258 -398
62 -30 75 -32 172 -32 97 0 110 2 172 32 162 77 258 224 258 398 0 173 -96
322 -256 397 -54 25 -81 31 -152 34 -48 2 -104 -1 -125 -6z"/>
<path d="M4567 4960 c-188 -48 -327 -227 -327 -424 0 -176 89 -317 250 -395
72 -34 80 -36 180 -36 100 0 108 2 180 36 161 78 250 219 250 395 0 172 -97
321 -256 396 -54 25 -81 31 -152 34 -48 2 -104 -1 -125 -6z"/>
<path d="M5052 7658 c-7 -7 -12 -20 -12 -30 0 -9 -28 -47 -62 -84 -53 -56 -81
-76 -168 -119 -58 -28 -150 -67 -203 -86 -53 -19 -95 -38 -93 -44 5 -14 115
-6 140 10 23 15 259 105 275 105 5 0 30 17 54 38 25 20 70 57 102 82 32 25 68
61 81 80 23 33 23 36 7 48 -22 15 -105 16 -121 0z"/>
</g>
</svg>
